<?xml version="1.0" encoding="UTF-8" standalone="no"?>
<!-- Generator: Adobe Illustrator 24.2.3, SVG Export Plug-In . SVG Version: 6.00 Build 0)  -->

<svg
   xmlns:dc="http://purl.org/dc/elements/1.1/"
   xmlns:cc="http://creativecommons.org/ns#"
   xmlns:rdf="http://www.w3.org/1999/02/22-rdf-syntax-ns#"
   xmlns:svg="http://www.w3.org/2000/svg"
   xmlns="http://www.w3.org/2000/svg"
   xmlns:sodipodi="http://sodipodi.sourceforge.net/DTD/sodipodi-0.dtd"
   xmlns:inkscape="http://www.inkscape.org/namespaces/inkscape"
   version="1.1"
   id="Layer_1"
   x="0px"
   y="0px"
   viewBox="0 0 657.65179 205.26734"
   xml:space="preserve"
   sodipodi:docname="bitcoincashaccepted.svg"
   inkscape:version="0.92.5 (2060ec1f9f, 2020-04-08)"
   width="657.65179"
   height="205.26733"><metadata
   id="metadata79"><rdf:RDF><cc:Work
       rdf:about=""><dc:format>image/svg+xml</dc:format><dc:type
         rdf:resource="http://purl.org/dc/dcmitype/StillImage" /><dc:title></dc:title></cc:Work></rdf:RDF></metadata><defs
   id="defs77" /><sodipodi:namedview
   pagecolor="#ffffff"
   bordercolor="#666666"
   borderopacity="1"
   objecttolerance="10"
   gridtolerance="10"
   guidetolerance="10"
   inkscape:pageopacity="0"
   inkscape:pageshadow="2"
   inkscape:window-width="1702"
   inkscape:window-height="1352"
   id="namedview75"
   showgrid="false"
   inkscape:zoom="0.87698987"
   inkscape:cx="176.62949"
   inkscape:cy="34.969594"
   inkscape:window-x="1726"
   inkscape:window-y="39"
   inkscape:window-maximized="0"
   inkscape:current-layer="Layer_1"
   fit-margin-top="1"
   fit-margin-left="1"
   fit-margin-right="1"
   fit-margin-bottom="1" />
<style
   type="text/css"
   id="style2">
	.st0{fill:url(#SVGID_1_);}
	.st1{fill:#CCCCCC;}
	.st2{fill:#4D4D4D;}
	.st3{fill:#0AC18E;}
	.st4{fill:#FFFFFF;}
</style>
<g
   id="Background"
   transform="matrix(0.94884489,0,0,0.78785786,1,1)"
   style="fill:#f5f5f5;fill-opacity:1;stroke-width:1.15658736"
   inkscape:label="#background">
	
		<linearGradient
   id="SVGID_1_"
   gradientUnits="userSpaceOnUse"
   x1="345.5"
   y1="257.5"
   x2="345.5"
   y2="2.5"
   gradientTransform="matrix(1,0,0,-1,0,259)">
		<stop
   offset="0"
   style="stop-color:#FFFFFF"
   id="stop4" />
		<stop
   offset="0.31237"
   style="stop-color:#FBFBFB"
   id="stop6" />
		<stop
   offset="0.6359"
   style="stop-color:#EEEFF0"
   id="stop8" />
		<stop
   offset="0.96359"
   style="stop-color:#DADCDD"
   id="stop10" />
		<stop
   offset="1"
   style="stop-color:#D7D9DA"
   id="stop12" />
	</linearGradient>
	<path
   class="st0"
   d="M 50,256.5 C 23.25684,256.5 1.5,234.74316 1.5,208 V 50 C 1.5,23.25684 23.25684,1.5 50,1.5 h 591 c 26.74316,0 48.5,21.75684 48.5,48.5 v 158 c 0,26.74316 -21.75684,48.5 -48.5,48.5 z"
   id="path15"
   inkscape:connector-curvature="0"
   style="fill:#f5f5f5;fill-opacity:1;stroke-width:1.2661531" />
	<path
   class="st1"
   d="m 641,3 c 25.91589,0 47,21.08409 47,47 v 158 c 0,25.91591 -21.08411,47 -47,47 H 50 C 24.08409,255 3,233.91591 3,208 V 50 C 3,24.08409 24.08409,3 50,3 h 591 m 0,-3 H 50 C 22.38573,0 0,22.38573 0,50 v 158 c 0,27.61427 22.38573,50 50,50 h 591 c 27.61426,0 50,-22.38573 50,-50 V 50 C 691,22.38573 668.61426,0 641,0 Z"
   id="path17"
   inkscape:connector-curvature="0"
   style="fill:#f5f5f5;fill-opacity:1;stroke-width:1.2661531" />
</g>
<path
   class="st2"
   d="m 269.7655,167.39605 c -0.39999,-2.8 -0.89999,-5.60001 -1.29999,-8.3 -0.4,-2.69999 -0.89999,-5.2 -1.39999,-7.39999 h -6.5 c -1.60001,2.3 -3.10001,4.60001 -4.70001,6.89999 -1.6,2.29998 -3.10001,4.8 -4.79999,7.39999 -1.69998,2.59999 -3.29999,5.39999 -5.10001,8.3 -1.70001,2.9 -3.6,6.10001 -5.6,9.60001 h 7.5 c 0.70001,-1.3 1.29999,-2.39999 2,-3.60001 0.70001,-1.20002 1.39999,-2.39999 2,-3.5 h 12.10001 c 0.10001,1.2 0.20001,2.3 0.29999,3.5 0.1,1.2 0.1,2.4 0.20001,3.60001 h 7.29999 c -0.29999,-2.5 -0.60001,-5.2 -0.89999,-8 -0.4,-2.8 -0.70002,-5.7 -1.10002,-8.5 z m -14.89999,3.8 c 1.10001,-2.2 2.29999,-4.3 3.60001,-6.3 1.20001,-2.10001 2.5,-4.10001 3.79999,-6.2 0.29999,2.2 0.60001,4.3 0.79999,6.5 0.20001,2.10001 0.29999,4.10001 0.5,6 z"
   id="path21"
   inkscape:connector-curvature="0"
   style="fill:#4d4d4d" />
<path
   class="st2"
   d="m 286.46552,160.99606 c 1,-1.2 2.20001,-2.2 3.60001,-2.89999 1.5,-0.7 3.10001,-1.10001 4.79999,-1.10001 1.10001,0 2.20001,0.2 3.29999,0.39999 1.20001,0.3 2.39999,0.8 3.5,1.39999 l 2.60001,-5.60001 c -1.39999,-0.8 -2.89999,-1.39999 -4.5,-1.8 -1.39999,-0.3 -2.89999,-0.5 -4.39999,-0.5 -2.89999,-0.10001 -5.70001,0.60001 -8.29999,1.8 -2.29999,1.10001 -4.39999,2.7 -6.10001,4.60001 -1.70001,1.89999 -3,4 -3.79999,6.39999 -0.89999,2.3 -1.29999,4.7 -1.29999,7.2 0,1.89999 0.29999,3.89999 0.89999,5.7 0.60001,1.60001 1.39999,3.10001 2.60001,4.3 1.10001,1.2 2.5,2.10001 4.10001,2.7 1.70001,0.7 3.5,1 5.29999,1 1.89999,0 3.79999,-0.2 5.70001,-0.60001 1.39999,-0.39999 2.79999,-0.89999 4.20001,-1.5 l -0.79999,-5.89999 c -1.10001,0.5 -2.29999,0.89999 -3.5,1.2 -1.29999,0.3 -2.70001,0.5 -4.10001,0.5 -1.89999,0.10001 -3.79999,-0.60001 -5.10001,-1.89999 -1.20001,-1.3 -1.79999,-3.3 -1.79999,-6 0,-1.7 0.29999,-3.5 0.79999,-5.10001 0.49994,-1.59998 1.19995,-2.99999 2.29996,-4.29997 z"
   id="path23"
   inkscape:connector-curvature="0"
   style="fill:#4d4d4d" />
<path
   class="st2"
   d="m 314.56552,160.99606 c 1,-1.2 2.20001,-2.2 3.60001,-2.89999 1.5,-0.7 3.10001,-1.10001 4.79999,-1.10001 1.10001,0 2.20001,0.2 3.29999,0.39999 1.20001,0.3 2.39999,0.8 3.5,1.39999 l 2.60001,-5.60001 c -1.39999,-0.8 -2.89999,-1.39999 -4.5,-1.8 -1.39999,-0.3 -2.89999,-0.5 -4.39999,-0.5 -2.89999,-0.10001 -5.70001,0.60001 -8.29999,1.8 -2.29999,1.10001 -4.39999,2.7 -6.10001,4.60001 -1.70001,1.89999 -3,4 -3.79999,6.39999 -0.89999,2.3 -1.29999,4.7 -1.29999,7.2 0,1.89999 0.29999,3.89999 0.89999,5.7 0.60001,1.60001 1.39999,3.10001 2.60001,4.3 1.10001,1.2 2.5,2.10001 4.10001,2.7 1.70001,0.7 3.5,1 5.29999,1 1.89999,0 3.79999,-0.2 5.70001,-0.60001 1.39999,-0.39999 2.79999,-0.89999 4.20001,-1.5 l -0.79999,-5.89999 c -1.10001,0.5 -2.29999,0.89999 -3.5,1.2 -1.29999,0.3 -2.70001,0.5 -4.10001,0.5 -1.89999,0.10001 -3.79999,-0.60001 -5.10001,-1.89999 -1.20001,-1.3 -1.79999,-3.3 -1.79999,-6 0,-1.7 0.29999,-3.5 0.79999,-5.10001 0.49994,-1.59998 1.19996,-2.99999 2.29996,-4.29997 z"
   id="path25"
   inkscape:connector-curvature="0"
   style="fill:#4d4d4d" />
<polygon
   class="st2"
   points="349.14999,200.10001 371.25,200.10001 372.75,194.10001 357.85001,194.10001 359.75,186.2 371.95001,186.2 373.35001,180.3 361.14999,180.3 362.64999,173.8 376.45001,173.8 377.95001,167.8 356.85001,167.8 349.14999,200 "
   id="polygon27"
   style="fill:#4d4d4d"
   transform="translate(-18.384489,-16.103961)" />
<path
   class="st2"
   d="m 383.56552,153.69605 c -1.20001,-0.89999 -2.60001,-1.5 -4,-1.8 -1.70001,-0.39999 -3.5,-0.60001 -5.29999,-0.60001 -1.29999,0 -2.70001,0.10001 -4.10001,0.10001 -1.5,0.2 -3.10001,0.39999 -4.79999,0.7 l -7.60001,31.8 h 7.20001 l 2.60001,-10.8 h 1.79999 c 2.39999,0 4.70001,-0.2 7,-0.7 2,-0.3 3.89999,-1 5.60001,-2.10001 1.5,-1 2.79999,-2.3 3.70001,-3.89999 0.89999,-1.8 1.29999,-3.89999 1.29999,-5.89999 0,-1.39999 -0.29999,-2.7 -0.89999,-3.89999 -0.60003,-1.10001 -1.50003,-2.10001 -2.50003,-2.90002 z m -4,7.5 c 0,0.89999 -0.20001,1.89999 -0.60001,2.7 -0.5,0.7 -1.10001,1.3 -1.79999,1.8 -0.79999,0.5 -1.70001,0.89999 -2.70001,1 -1.20001,0.2 -2.39999,0.3 -3.60001,0.3 h -1.79999 l 2.20001,-9.5 c 0.39999,0 0.70001,-0.10001 1.10001,-0.10001 h 1.29999 c 1.5,-0.10001 3,0.2 4.39999,0.8 1.00001,0.6 1.59999,1.80002 1.50001,3.00001 z"
   id="path29"
   inkscape:connector-curvature="0"
   style="fill:#4d4d4d" />
<polygon
   class="st2"
   points="435.95001,167.8 409.85001,167.8 408.35001,173.89999 417.75,173.89999 411.45001,200 418.75,200 425.04999,173.89999 434.45001,173.89999 "
   id="polygon31"
   style="fill:#4d4d4d"
   transform="translate(-18.384489,-16.103961)" />
<polygon
   class="st2"
   points="432.04999,200.10001 454.14999,200.10001 455.64999,194.10001 440.75,194.10001 442.64999,186.2 454.85001,186.2 456.25,180.3 444.04999,180.3 445.54999,173.8 459.35001,173.8 460.85001,167.8 439.75,167.8 432.04999,200 "
   id="polygon33"
   style="fill:#4d4d4d"
   transform="translate(-18.384489,-16.103961)" />
<path
   class="st2"
   d="m 468.46552,154.99606 c -1.29999,-1.2 -2.89999,-2.10001 -4.60001,-2.7 -2,-0.60001 -4.10001,-0.89999 -6.20001,-0.89999 -1.29999,0 -2.79999,0.10001 -4.39999,0.2 -1.6,0.1 -3.29999,0.39999 -5.10001,0.7 l -7.5,31.10001 c 1.60001,0.3 3.20001,0.5 4.89999,0.7 1.70001,0.10001 3.20001,0.2 4.5,0.2 3.20001,0 6.29999,-0.39999 9.29999,-1.39999 2.60001,-0.89999 5,-2.2 7,-4 1.89999,-1.7 3.39999,-3.89999 4.39999,-6.3 1,-2.7 1.5,-5.5 1.5,-8.39999 0,-1.7 -0.29999,-3.5 -0.89999,-5.10001 -0.59998,-1.60003 -1.59998,-3.00004 -2.89996,-4.10003 z m -4.60001,15.29998 c -0.60001,1.60001 -1.39999,3.10001 -2.60001,4.3 -1.10001,1.2 -2.5,2.10001 -4.10001,2.7 -1.79999,0.60001 -3.60001,0.89999 -5.5,0.89999 h -1.5 c -0.29999,0 -0.70001,-0.10001 -1,-0.10001 l 4.89999,-20.7 c 0.89999,-0.10001 1.89999,-0.10001 2.79999,-0.10001 1.20001,0 2.39999,0.2 3.60001,0.5 0.89999,0.3 1.79999,0.8 2.5,1.5 0.70001,0.60001 1.10001,1.39999 1.39999,2.3 0.29999,1 0.39999,2 0.39999,3 4e-5,1.90005 -0.29994,3.90005 -0.89995,5.70003 z"
   id="path35"
   inkscape:connector-curvature="0"
   style="fill:#4d4d4d" />
<polygon
   class="st2"
   points="524.25,186.3 520.95001,200 528.25,200 536.04999,167.8 528.75,167.8 525.75,180.2 514.25,180.2 517.25,167.8 509.95001,167.8 502.25,200 509.45001,200 512.75,186.3 "
   id="polygon37"
   style="fill:#4d4d4d"
   transform="translate(-18.384489,-16.103961)" />
<polygon
   class="st2"
   points="534.84998,200.10001 556.95001,200.10001 558.45001,194.10001 543.54999,194.10001 545.45001,186.2 557.65002,186.2 559.04999,180.3 546.84998,180.3 548.34998,173.8 562.15002,173.8 563.65002,167.8 542.54999,167.8 534.84998,200 "
   id="polygon39"
   style="fill:#4d4d4d"
   transform="translate(-18.384489,-16.103961)" />
<path
   class="st2"
   d="m 569.46549,153.99606 c -1.20001,-0.89999 -2.5,-1.60001 -3.90002,-2 -1.79999,-0.5 -3.59998,-0.8 -5.40002,-0.7 -1.29999,0 -2.70001,0.10001 -4.20001,0.2 -1.59998,0.2 -3.20001,0.39999 -4.90002,0.7 l -7.59998,31.8 h 7.20001 l 2.79999,-11.8 h 3.59998 c 1,1.7 1.79999,3.5 2.40002,5.39999 0.79999,2 1.5,4.2 2.20001,6.3 h 7.79999 c -0.79999,-2.5 -1.70001,-4.89999 -2.59998,-7.2 -0.79999,-2 -1.70001,-4 -2.70001,-5.89999 1.5,-0.39999 2.90002,-1 4.09998,-1.89999 1,-0.7 1.90002,-1.5 2.59998,-2.5 0.59998,-0.8 1.09998,-1.8 1.29999,-2.8 0.20001,-1 0.29999,-2 0.29999,-3 0,-1.2 -0.20001,-2.5 -0.70001,-3.60001 -0.49985,-1.20002 -1.29989,-2.20002 -2.29989,-3 z m -4.5,9.19999 c -0.29999,0.60001 -0.70001,1.2 -1.29999,1.60001 -0.79999,0.5 -1.59998,0.89999 -2.5,1.10001 -1.20001,0.3 -2.5,0.39999 -3.79999,0.39999 h -2.5 l 2.09998,-8.8 c 0.40002,0 0.79999,-0.10001 1.40002,-0.10001 h 1.59998 c 0.90002,0 1.90002,0.10001 2.79999,0.3 1.09998,0.3 2,1.10001 2.40002,2.2 0.1,0.5 0.20001,1 0.20001,1.5 0,0.60001 -0.1,1.2 -0.40002,1.8 z"
   id="path41"
   inkscape:connector-curvature="0"
   style="fill:#4d4d4d" />
<polygon
   class="st2"
   points="602.25,186.2 614.45001,186.2 615.84998,180.3 603.65002,180.3 605.15002,173.8 618.95001,173.8 620.45001,167.8 599.34998,167.8 591.65002,200 591.65002,200.10001 613.75,200.10001 615.25,194.10001 600.34998,194.10001 "
   id="polygon43"
   style="fill:#4d4d4d"
   transform="translate(-18.384489,-16.103961)" />
<path
   class="st2"
   d="m 163.06551,82.996039 c 5.5,-3.4 8.3,-7.9 8.3,-13.6 0.10001,-3.4 -0.8,-6.7 -2.39999,-9.6 -1.60001,-2.6 -3.8,-4.9 -6.5,-6.3 -3.10001,-1.7 -6.5,-2.8 -9.89999,-3.4 -4.2,-0.8 -8.39999,-1.1 -12.60001,-1 -3.5,0 -7.10001,0.1 -11,0.4 -3.7,0.2 -7.39999,0.8 -10.89999,1.4 v 70.100011 c 4,0.9 8.10001,1.4 12.2,1.70001 3.89999,0.2 7.89999,0.3 11.8,0.3 10.89999,0 19.10001,-1.80001 24.8,-5.70001 5.5,-3.8 8.3,-9.5 8.3,-17.1 0,-3.600001 -0.89999,-7.000001 -2.5,-10.100001 -1.90003,-3.00001 -4.90003,-5.40001 -9.60002,-7.10001 z m -29.4,-4.8 v -15.7 c 1.3,-0.1 2.7,-0.2 4.3,-0.2 1.6,0 3.10001,0 4.5,0 4.3,0 7.60001,0.5 9.8,1.7 2.19999,1.2 3.39999,3.2 3.39999,6.2 0.2,2.5 -1.10001,4.9 -3.2,6.2 -2.2,1.3 -5.7,1.9 -10.7,1.9 z m 20.30001,29.500001 c -3.7,1.5 -7.8,2.3 -11.8,2.1 -1.60001,0 -3.2,0 -4.60001,-0.1 -1.39999,-0.1 -2.7,-0.1 -3.89999,-0.3 v -18.700001 0 0.1 h 10.2 c 4.60001,0 8.2,0.6 10.7,2.2 2.5,1.4 3.8,3.8 3.8,7.100001 0.1,3.6 -1.4,6.2 -4.4,7.6 z"
   id="path45"
   inkscape:connector-curvature="0"
   style="fill:#4d4d4d" />
<path
   class="st2"
   d="m 188.86551,42.296039 c -2.39999,0 -4.8,0.9 -6.5,2.5 -1.89999,1.7 -2.89999,4.2 -2.8,6.7 -0.10001,2.6 0.89999,5 2.8,6.7 3.8,3.2 9.3,3.2 13.10001,0 1.89999,-1.7 2.89999,-4.2 2.8,-6.7 0.10001,-2.6 -0.89999,-5 -2.8,-6.7 -1.90001,-1.7 -4.30001,-2.6 -6.60001,-2.5 z"
   id="path47"
   inkscape:connector-curvature="0"
   style="fill:#4d4d4d" />
<rect
   x="181.16551"
   y="67.296043"
   class="st2"
   width="15.5"
   height="54.799999"
   id="rect49"
   style="fill:#4d4d4d" />
<path
   class="st2"
   d="m 234.2655,109.79604 c -1.7,0.3 -3.5,0.4 -5.10001,0.4 -3.5,0 -5.8,-1 -6.89999,-2.9 -1.2,-2.4 -1.8,-5.1 -1.7,-7.800001 v -19.2 h 18.7 v -13 h -18.7 v -16.1 l -15.60001,2.5 h -0.10001 v 46.2 c 0,3.200001 0.3,6.500001 1,9.600001 0.5,2.7 1.7,5.3 3.5,7.50001 1.7,2.2 4.10001,3.8 6.7,4.9 3.39999,1.2 6.89999,1.8 10.60001,1.7 2.8,0 5.60001,-0.2 8.39999,-0.89999 2.2,-0.5 4.20001,-1.20001 6.29999,-1.9 l -2.20001,-12.1 c -1.59994,0.29998 -3.19994,0.79998 -4.89996,1.09998 z"
   id="path51"
   inkscape:connector-curvature="0"
   style="fill:#4d4d4d" />
<path
   class="st2"
   d="m 277.36551,109.79604 c -1.89999,0.3 -4,0.5 -6.10001,0.5 -5.20001,0 -9,-1.3 -11,-4.1 -2.10001,-2.7 -3.10001,-6.500001 -3.10001,-11.500001 0,-4.6 1.10001,-8.4 3.39999,-11.2 2.29998,-2.8 5.60001,-4.3 10.29999,-4.3 1.89999,0 3.89999,0.2 5.79999,0.6 1.60001,0.4 3.20001,0.9 4.89999,1.4 l 3.20001,-12.4 c -2.29999,-1 -4.60001,-1.7 -7,-2.3 -2.60001,-0.5 -5.29999,-0.9 -8,-0.8 -4.10001,-0.1 -8.10001,0.6 -11.89999,2.3 -6.70001,2.8 -12,8.4 -14.39999,15.4 -1.29999,3.6 -1.89999,7.4 -1.89999,11.1 0,3.9 0.5,7.800001 1.5,11.500001 1,3.4 2.70001,6.50001 5.10001,9.1 2.5,2.7 5.5,4.8 9,6.10001 4.10001,1.60002 8.5,2.4 13,2.30001 3,0 6.10001,-0.3 9,-0.89999 2.29999,-0.39999 4.60001,-1.10002 6.79999,-1.9 l -2.20001,-12.8 c -2.29996,0.99997 -4.29996,1.59997 -6.39997,1.89997 z"
   id="path53"
   inkscape:connector-curvature="0"
   style="fill:#4d4d4d" />
<path
   class="st2"
   d="m 331.56552,73.796039 c -2.39999,-2.5 -5.29999,-4.5 -8.5,-5.8 -3.5,-1.4 -7.10001,-2.2 -10.89999,-2.1 -3.70001,0 -7.39999,0.6 -10.79999,2.1 -3.20001,1.3 -6.20001,3.4 -8.5,5.8 -2.5,2.6 -4.29999,5.6 -5.60001,9.1 -1.39999,3.8 -2.10001,7.8 -2.10001,11.8 -0.10001,4 0.60001,8.000001 1.89999,11.800001 1.20001,3.4 3,6.5 5.5,9.2 2.39999,2.60001 5.29999,4.5 8.5,5.8 7.10001,2.80001 15,2.80001 22.10001,0 3.20001,-1.3 6.20001,-3.39999 8.5,-5.8 2.39999,-2.60001 4.20001,-5.7 5.39999,-9.2 1.29999,-3.8 1.89999,-7.800001 1.79999,-11.800001 0,-4 -0.60001,-8 -1.89999,-11.8 -1.1,-3.4 -2.89999,-6.5 -5.39999,-9.1 z M 320.2655,105.99604 c -3.20001,4.5 -9.5,5.6 -14.10001,2.4 -0.89999,-0.6 -1.70001,-1.4 -2.39999,-2.4 -1.89999,-2.8 -2.89999,-6.600001 -2.89999,-11.400001 0,-4.8 1,-8.5 2.89999,-11.2 3.39999,-4.5 9.79999,-5.5 14.39999,-2.1 0.79999,0.5 1.5,1.3 2.10001,2.1 1.89999,2.7 2.89999,6.5 2.89999,11.2 1e-5,4.8 -0.89999,8.600001 -2.89999,11.400001 z"
   id="path55"
   inkscape:connector-curvature="0"
   style="fill:#4d4d4d" />
<path
   class="st2"
   d="m 352.96552,42.296039 c -2.39999,0 -4.79999,0.9 -6.5,2.5 -1.89999,1.7 -2.89999,4.2 -2.79999,6.7 -0.10001,2.6 0.89999,5 2.79999,6.7 3.79999,3.2 9.29999,3.2 13.10001,0 1.89999,-1.7 2.89999,-4.2 2.79999,-6.7 0.10001,-2.6 -0.89999,-5 -2.79999,-6.7 -1.90003,-1.7 -4.20002,-2.6 -6.60001,-2.5 z"
   id="path57"
   inkscape:connector-curvature="0"
   style="fill:#4d4d4d" />
<rect
   x="345.2655"
   y="67.296043"
   class="st2"
   width="15.5"
   height="54.799999"
   id="rect59"
   style="fill:#4d4d4d" />
<path
   class="st2"
   d="m 415.7655,80.896039 c -0.60001,-2.9 -1.89999,-5.6 -3.89999,-7.9 -1.89999,-2.3 -4.39999,-4.1 -7.39999,-5.1 -3.70001,-1.3 -7.70001,-1.9 -11.60001,-1.8 -4.39999,0 -8.79999,0.3 -13.10001,1 -3.5,0.5 -6.79999,1.2 -10.20001,2.2 v 52.900001 h 15.5 V 79.696039 c 1,-0.1 2.10001,-0.2 3.39999,-0.3 1.29999,-0.1 2.39999,-0.2 3.60001,-0.2 3.60001,0 6.10001,1 7.39999,3.1 1.29999,2.2 1.89999,5.6 1.89999,10.6 v 29.100021 h 15.60001 V 90.996049 c -0.1,-3.40001 -0.39996,-6.70001 -1.19998,-10.10001 z"
   id="path61"
   inkscape:connector-curvature="0"
   style="fill:#4d4d4d" />
<path
   class="st3"
   d="m 475.96552,106.39604 c -1.29999,0.5 -2.60001,1 -3.89999,1.3 -1.60001,0.4 -3.39999,0.8 -5.10001,1 -2.20001,0.3 -4.20001,0.4 -6.39999,0.4 -3.20001,0.1 -6.60001,-0.5 -9.60001,-1.8 -2.5,-1.1 -4.60001,-2.8 -6.39999,-5 -1.60001,-2.2 -2.89999,-4.800001 -3.60001,-7.500001 -0.79999,-3 -1.10001,-6.2 -1.10001,-9.3 -0.10001,-3.6 0.39999,-7.2 1.60001,-10.6 1,-2.7 2.5,-5.1 4.39999,-7.1 1.79999,-1.8 4,-3.1 6.39999,-4 2.39999,-0.8 4.89999,-1.2 7.39999,-1.2 3.39999,-0.1 6.79999,0.3 10.10001,1.2 2.70001,0.8 5.29999,1.7 7.79999,3 l 4.79999,-13.1 c -0.5,-0.3 -1.5,-0.8 -2.70001,-1.4 -1.5,-0.8 -3.10001,-1.3 -4.79999,-1.8 -2.20001,-0.6 -4.29999,-1.2 -6.60001,-1.5 -2.70001,-0.5 -5.5,-0.8 -8.29999,-0.6 -5,0 -9.89999,0.8 -14.70001,2.5 -4.29999,1.6 -8.29999,4.1 -11.70001,7.4 -3.39999,3.4 -5.89999,7.5 -7.70001,11.9 -1.89999,5.1 -2.89999,10.5 -2.79999,16 0,12 3,21.300001 9.20001,27.800001 6.20001,6.5 15,9.80001 26.79999,9.80001 4.89999,0.10001 9.79999,-0.5 14.60001,-1.60001 3.39999,-0.80001 6.60001,-2.10002 9.60001,-3.80001 l -4.5,-13.1 c -0.59998,0.10001 -1.69996,0.70001 -2.79996,1.10001 z"
   id="path63"
   style="fill:#0ad671;fill-opacity:1"
   inkscape:connector-curvature="0" />
<path
   class="st3"
   d="m 526.56552,71.896039 c -2.09998,-2.1 -4.5,-3.7 -7.40002,-4.5 -3.70001,-1.1 -7.59998,-1.6 -11.5,-1.5 -1.79999,0 -3.70001,0.1 -5.5,0.2 -1.70001,0.2 -3.5,0.3 -5.09998,0.6 -1.59998,0.3 -3.09998,0.5 -4.39999,0.9 -1.29999,0.3 -2.5,0.6 -3.39999,0.9 l 2.10001,12.5 c 2.19998,-0.8 4.39999,-1.3 6.69998,-1.6 2.59998,-0.4 5.20001,-0.5 7.79999,-0.5 4,0 6.70001,0.8 8.29999,2.4 1.59998,1.7 2.5,4 2.40002,6.4 v 1.4 c -1.20001,-0.3 -2.5,-0.5 -3.79999,-0.6 -1.5,-0.1 -3.40002,-0.2 -5.29999,-0.2 -2.90002,0 -5.79999,0.3 -8.59998,0.9 -2.59998,0.5 -5.09998,1.5 -7.39999,2.9 -2.20001,1.3 -3.89999,3.1 -5.10001,5.3 -1.29999,2.5 -2.10001,5.300001 -1.89999,8.100001 -0.10001,2.9 0.39999,5.8 1.60001,8.4 1.10001,2.3 2.79999,4.10001 4.89999,5.5 2.29999,1.5 4.80002,2.50001 7.50003,3.00001 3.09998,0.60001 6.40002,1 9.59998,1 4.90002,0 9.59998,-0.3 14.40002,-1 4,-0.60001 7,-1.20001 9.29999,-1.70001 V 88.396039 c 0,-3.1 -0.29999,-6.3 -1.09998,-9.3 -0.80011,-2.7 -2.30011,-5.2 -4.1001,-7.2 z m -9.79999,39.000001 c -1.09998,0.2 -2.20001,0.3 -3.40002,0.3 -1.40002,0.1 -2.79999,0.1 -4.29999,0.1 v 0 c -2.40002,0.1 -4.59998,-0.3 -6.70001,-1.4 -1.59998,-0.9 -2.5,-2.6 -2.5,-5.1 0,-1.1 0.29999,-2.2 0.90002,-3.1 0.5,-0.9 1.40002,-1.5 2.29999,-1.900001 1.09998,-0.5 2.20001,-0.9 3.40002,-1 1.40002,-0.2 2.70001,-0.2 4.09998,-0.2 1.20001,0 2.29999,0.1 3.5,0.2 1,0.1 1.90002,0.2 2.79999,0.4 z"
   id="path65"
   style="fill:#0ad671;fill-opacity:1"
   inkscape:connector-curvature="0" />
<path
   class="st3"
   d="m 575.56552,96.296039 c -1.5,-1.6 -3.40002,-2.9 -5.29999,-4 -2.70001,-1.4 -5.5,-2.7 -8.40002,-3.8 -1.40002,-0.4 -2.79999,-1.1 -4.09998,-1.7 -0.90002,-0.4 -1.70001,-0.9 -2.59998,-1.4 -0.5,-0.3 -1,-0.9 -1.20001,-1.4 -0.20001,-0.5 -0.29999,-1.1 -0.29999,-1.6 0,-2.7 2.40002,-4.1 7.20001,-4.1 2.40002,0 4.79999,0.2 7.09998,0.8 1.90002,0.4 4,1 5.79999,1.6 l 2.70001,-12.1 c -2.40002,-0.9 -4.79999,-1.5 -7.20001,-1.9 -3.09998,-0.6 -6.40002,-0.9 -9.59998,-0.9 -6.70001,0 -11.90002,1.5 -15.70001,4.5 -3.79999,2.9 -5.90002,7.5 -5.70001,12.2 -0.1,2.3 0.29999,4.6 1.09998,6.8 0.79999,1.8 1.79999,3.5 3.20001,4.9 1.5,1.4 3.09998,2.6 5.09998,3.5 2.20001,1.1 4.29999,2.1 6.59998,2.800001 2.40002,0.9 4.79999,1.8 7,3.1 1.29999,0.5 2.20001,1.8 2.29999,3.2 0.1,1.3 -0.5,2.6 -1.70001,3.2 -1.90002,0.6 -4,1 -6.09998,0.9 -2.70001,0 -5.5,-0.3 -8.09998,-1 -2.79999,-0.6 -5.5,-1.4 -8.09998,-2.5 l -2.59998,12.60001 c 2.20001,0.89999 4.40002,1.5 6.70001,2.10002 4,0.89999 8.09998,1.3 12.09998,1.2 7.5,0 13.20001,-1.39999 17.20001,-4.20001 4.09998,-2.7 6.09998,-6.8 6.09998,-12.2 0,-2.1 -0.20001,-4.1 -0.79999,-6.1 -0.60003,-1.500021 -1.5,-3.100021 -2.70001,-4.500021 z"
   id="path67"
   style="fill:#0ad671;fill-opacity:1"
   inkscape:connector-curvature="0" />
<path
   class="st3"
   d="m 630.86551,80.896039 c -0.59998,-2.9 -1.90002,-5.6 -3.79999,-7.9 -1.79999,-2.3 -4.29999,-4 -7,-5.1 -3.59998,-1.3 -7.20001,-1.9 -11,-1.8 -1.59998,0 -3.20001,0.1 -4.79999,0.4 -1.40002,0.2 -2.70001,0.6 -4,1 v -26.3 l -15.5,2.5 v 78.300011 h 15.5 V 80.396039 c 1.09998,-0.3 2.20001,-0.6 3.20001,-0.8 1.29999,-0.2 2.59998,-0.4 3.90002,-0.3 3.5,0 5.79999,1 7.09998,3.1 1.29999,2.1 1.90002,5.6 1.90002,10.6 v 29.100011 h 15.5 V 91.096039 c 0.19996,-3.4 -0.10003,-6.8 -1.00005,-10.2 z"
   id="path69"
   style="fill:#0ad671;fill-opacity:1"
   inkscape:connector-curvature="0" />
<circle
   class="st3"
   cx="63.56551"
   cy="83.49604"
   id="ellipse71"
   style="fill:#0ad671;fill-opacity:1"
   r="41.299999" />
<path
   id="symbol_1_"
   class="st4"
   d="m 76.365511,69.696039 c -2.1,-4.8 -6.8,-5.7 -12.6,-4.8 l -1.8,-7.2 -4.4,1.2 1.8,7.2 c -1.2,0.3 -2.4,0.5 -3.6,0.9 l -1.8,-7.2 -4.4,1.2 1.8,7.2 c -1,0.2 -9,2.3 -9,2.3 l 1.2,4.8 3.2,-0.9 c 1.8,-0.4 2.6,0.4 3,1.3 l 5.2,19.9 c 0.1,0.5 0,1.6 -1.3,1.9 0.1,0 -3.2,0.9 -3.2,0.9 l 0.4,5.500001 c 0,0 7.9,-2.1 9,-2.3 l 1.9,7.4 4.4,-1.2 -1.9,-7.5 c 1.2,-0.300001 2.4,-0.500001 3.6,-0.900001 l 1.8,7.400001 4.4,-1.2 -1.9,-7.400001 c 6.8,-1.6 11.7,-5.9 10.6,-12.5 -0.6,-4 -5,-7.2 -8.5,-7.6 2.4,-1.8 3.5,-4.8 2.1,-8.4 z m -2.1,17.3 c 0.9,6.5 -8.1,7.4 -11.1,8.1 l -2.6,-9.7 c 3,-0.8 12.2,-4.2 13.7,1.6 z m -5.4,-13.2 c 1,5.8 -6.8,6.5 -9.3,7.1 l -2.4,-8.9 c 2.5,-0.6 9.7,-3.6 11.7,1.8 z"
   inkscape:connector-curvature="0"
   style="fill:#ffffff" />
</svg>